<?xml version="1.0" encoding="UTF-8"?>
<svg id="Calque_1" xmlns="http://www.w3.org/2000/svg" xmlns:xlink="http://www.w3.org/1999/xlink" version="1.1" viewBox="0 0 700 768">
  <!-- Generator: Adobe Illustrator 29.2.1, SVG Export Plug-In . SVG Version: 2.1.0 Build 116)  -->
  <defs>
    <style>
      .st0 {
        fill: url(#Dégradé_sans_nom_4);
      }
    </style>
    <linearGradient id="Dégradé_sans_nom_4" data-name="Dégradé sans nom 4" x1="32.88" y1="384" x2="668.12" y2="384" gradientUnits="userSpaceOnUse">
      <stop offset="0" stop-color="#b58145"/>
      <stop offset="1" stop-color="#e9b975"/>
    </linearGradient>
  </defs>
  <path class="st0" d="M599.07,232.05v-52.24h-18.53c.53-13.32-2-26.4-7.65-38.69-10.66-23.18-32.07-42.27-58.53-53.12v-29.23l-24.58-4.87c-25.12-4.98-36.87-12.41-50.48-21.02-19.18-12.13-40.93-25.89-88.79-25.89s-69.61,13.75-88.8,25.89c-13.61,8.61-25.36,16.04-50.48,21.02l-24.58,4.87v29.23c-26.46,10.85-47.88,29.94-58.53,53.12-5.65,12.28-8.19,25.37-7.65,38.69h-18.53v52.24c-22.83,21.36-69.05,74.2-69.05,151.95s46.21,130.59,69.05,151.95v52.24h18.53c-.53,13.32,2,26.4,7.65,38.69,10.66,23.18,32.07,42.27,58.53,53.12v29.23l24.58,4.87c25.12,4.98,36.87,12.41,50.48,21.02,19.18,12.13,40.93,25.89,88.8,25.89s69.61-13.75,88.79-25.89c13.61-8.61,25.36-16.04,50.48-21.02l24.58-4.87v-29.23c26.46-10.85,47.88-29.94,58.53-53.12,5.65-12.28,8.19-25.37,7.65-38.69h18.53v-52.24c22.83-21.36,69.05-74.2,69.05-151.95s-46.21-130.59-69.05-151.95ZM583.32,528.99v43.43h-20.97c5.46,20.5,1.18,37.09-3.78,47.86-10.25,22.3-32.47,40.23-59.97,48.63v27.35l-11.88,2.36c-28.01,5.55-42.16,14.5-55.85,23.16-18.23,11.53-37.07,23.45-80.37,23.45s-62.15-11.92-80.37-23.45c-13.68-8.66-27.84-17.61-55.84-23.16l-11.89-2.36v-27.35c-27.5-8.4-49.72-26.33-59.97-48.63-4.95-10.77-9.23-27.36-3.77-47.87h-20.97v-43.43c-18.84-16.17-69.05-66.67-69.05-144.99s50.21-128.82,69.05-144.99v-43.43h20.97c-5.46-20.5-1.18-37.09,3.77-47.86,10.25-22.3,32.47-40.23,59.97-48.63v-27.36l11.89-2.36c28-5.55,42.16-14.5,55.84-23.16,18.22-11.53,37.06-23.45,80.37-23.45s62.14,11.92,80.37,23.45c13.69,8.66,27.84,17.61,55.84,23.16l11.89,2.36v27.36c27.5,8.4,49.72,26.33,59.97,48.63,4.95,10.78,9.23,27.37,3.78,47.86h20.97v43.43c18.84,16.17,69.05,66.67,69.05,144.99s-50.21,128.82-69.05,144.99ZM350.5,33.45c40.2,0,56.94,10.59,74.66,21.79,14.51,9.18,29.53,18.68,59.48,24.61l3.28.65v26.79c27.85,6.3,51.02,23.29,60.95,44.89,7.71,16.77,7.05,35.35-1.84,54.08h25.6v37.8c10.64,8.63,69.05,59.66,69.05,139.94s-58.41,131.32-69.05,139.94v37.8h-25.6c8.89,18.73,9.55,37.31,1.84,54.08-9.93,21.6-33.1,38.58-60.95,44.89v26.79l-3.28.65c-29.95,5.94-44.97,15.43-59.48,24.61-17.72,11.21-34.45,21.79-74.66,21.79s-56.94-10.59-74.66-21.79c-14.51-9.18-29.53-18.68-59.48-24.61l-3.28-.65v-26.79c-27.85-6.3-51.02-23.29-60.95-44.89-7.71-16.77-7.05-35.35,1.84-54.08h-25.61v-37.8c-10.64-8.63-69.05-59.66-69.05-139.94s58.4-131.32,69.05-139.94v-37.8h25.61c-8.89-18.73-9.55-37.31-1.84-54.08,9.93-21.6,33.1-38.58,60.95-44.89v-26.79l3.28-.65c29.95-5.94,44.97-15.43,59.48-24.61,17.72-11.21,34.45-21.79,74.66-21.79M350.5,31.29c-40.83,0-57.82,10.75-75.81,22.13-14.35,9.08-29.18,18.46-58.75,24.32l-3.28.65-1.74.34v26.85c-27.66,6.73-50.84,24.13-60.76,45.69-7.53,16.37-7.35,34.57.47,52.83h-24.43v38.93c-13.29,10.97-69.05,61.76-69.05,140.96s55.76,129.99,69.05,140.96v38.93h24.43c-7.81,18.26-7.99,36.47-.47,52.83,9.92,21.57,33.1,38.96,60.76,45.69v26.85l1.74.34,3.28.65c29.56,5.86,44.4,15.24,58.75,24.32,17.99,11.38,34.98,22.13,75.81,22.13s57.82-10.75,75.81-22.13c14.35-9.08,29.18-18.46,58.75-24.32l3.28-.65,1.74-.34v-26.85c27.66-6.73,50.84-24.13,60.76-45.69,7.53-16.37,7.35-34.57-.47-52.83h24.42v-38.93c13.29-10.97,69.05-61.77,69.05-140.96s-55.76-129.99-69.05-140.96v-38.93h-24.42c7.81-18.26,7.99-36.47.47-52.83-9.92-21.57-33.1-38.96-60.76-45.69v-26.85l-1.74-.34-3.28-.65c-29.56-5.86-44.4-15.24-58.75-24.32-17.99-11.38-34.98-22.13-75.81-22.13h0Z"/>
</svg>