<?xml version="1.0" encoding="UTF-8"?>
<svg id="Calque_1" xmlns="http://www.w3.org/2000/svg" version="1.1" viewBox="0 0 700 768">
  <!-- Generator: Adobe Illustrator 29.2.1, SVG Export Plug-In . SVG Version: 2.1.0 Build 116)  -->
  <defs>
    <style>
      .st0 {
        fill: #b58f5c;
      }
    </style>
  </defs>
  <path class="st0" d="M593.3,235.27v-51.13h-18.14c.52-13.04-1.96-25.84-7.49-37.87-10.43-22.69-31.39-41.37-57.29-51.99v-28.61l-24.06-4.77c-24.59-4.87-36.09-12.15-49.41-20.57-18.78-11.88-40.06-25.34-86.91-25.34s-68.14,13.46-86.91,25.34c-13.32,8.43-24.82,15.7-49.41,20.57l-24.06,4.77v28.61c-25.9,10.62-46.86,29.31-57.29,51.99-5.53,12.02-8.01,24.83-7.49,37.87h-18.14v51.13c-22.35,20.91-67.58,72.62-67.58,148.73s45.23,127.82,67.58,148.73v51.13h18.14c-.52,13.04,1.96,25.84,7.49,37.87,10.43,22.69,31.39,41.37,57.29,51.99v28.61l24.06,4.77c24.59,4.87,36.09,12.15,49.41,20.57,18.78,11.88,40.06,25.34,86.91,25.34s68.13-13.46,86.91-25.34c13.32-8.43,24.82-15.7,49.41-20.57l24.06-4.77v-28.61c25.9-10.62,46.86-29.31,57.29-51.99,5.53-12.02,8.01-24.83,7.49-37.87h18.14v-51.13c22.35-20.91,67.58-72.62,67.58-148.73s-45.23-127.82-67.58-148.73Z"/>
</svg>